<svg id="visual" viewBox="0 0 2560 1440" width="2560" height="1440" xmlns="http://www.w3.org/2000/svg" xmlns:xlink="http://www.w3.org/1999/xlink" version="1.1"><rect x="0" y="0" width="2560" height="1440" fill="#001220"></rect><defs><linearGradient id="grad1_0" x1="43.8%" y1="0%" x2="100%" y2="100%"><stop offset="14.444444444444446%" stop-color="#fbae3c" stop-opacity="1"></stop><stop offset="85.55555555555554%" stop-color="#fbae3c" stop-opacity="1"></stop></linearGradient></defs><defs><linearGradient id="grad1_1" x1="43.8%" y1="0%" x2="100%" y2="100%"><stop offset="14.444444444444446%" stop-color="#fbae3c" stop-opacity="1"></stop><stop offset="85.55555555555554%" stop-color="#e1685e" stop-opacity="1"></stop></linearGradient></defs><defs><linearGradient id="grad1_2" x1="43.8%" y1="0%" x2="100%" y2="100%"><stop offset="14.444444444444446%" stop-color="#96446e" stop-opacity="1"></stop><stop offset="85.55555555555554%" stop-color="#e1685e" stop-opacity="1"></stop></linearGradient></defs><defs><linearGradient id="grad1_3" x1="43.8%" y1="0%" x2="100%" y2="100%"><stop offset="14.444444444444446%" stop-color="#96446e" stop-opacity="1"></stop><stop offset="85.55555555555554%" stop-color="#3d3056" stop-opacity="1"></stop></linearGradient></defs><defs><linearGradient id="grad1_4" x1="43.8%" y1="0%" x2="100%" y2="100%"><stop offset="14.444444444444446%" stop-color="#001220" stop-opacity="1"></stop><stop offset="85.55555555555554%" stop-color="#3d3056" stop-opacity="1"></stop></linearGradient></defs><defs><linearGradient id="grad2_0" x1="0%" y1="0%" x2="56.3%" y2="100%"><stop offset="14.444444444444446%" stop-color="#fbae3c" stop-opacity="1"></stop><stop offset="85.55555555555554%" stop-color="#fbae3c" stop-opacity="1"></stop></linearGradient></defs><defs><linearGradient id="grad2_1" x1="0%" y1="0%" x2="56.3%" y2="100%"><stop offset="14.444444444444446%" stop-color="#e1685e" stop-opacity="1"></stop><stop offset="85.55555555555554%" stop-color="#fbae3c" stop-opacity="1"></stop></linearGradient></defs><defs><linearGradient id="grad2_2" x1="0%" y1="0%" x2="56.3%" y2="100%"><stop offset="14.444444444444446%" stop-color="#e1685e" stop-opacity="1"></stop><stop offset="85.55555555555554%" stop-color="#96446e" stop-opacity="1"></stop></linearGradient></defs><defs><linearGradient id="grad2_3" x1="0%" y1="0%" x2="56.3%" y2="100%"><stop offset="14.444444444444446%" stop-color="#3d3056" stop-opacity="1"></stop><stop offset="85.55555555555554%" stop-color="#96446e" stop-opacity="1"></stop></linearGradient></defs><defs><linearGradient id="grad2_4" x1="0%" y1="0%" x2="56.3%" y2="100%"><stop offset="14.444444444444446%" stop-color="#3d3056" stop-opacity="1"></stop><stop offset="85.55555555555554%" stop-color="#001220" stop-opacity="1"></stop></linearGradient></defs><g transform="translate(2560, 0)"><path d="M0 1008C-137.1 1000.7 -274.3 993.5 -385.7 931.3C-497.2 869.1 -583 751.9 -643.5 643.5C-703.9 535 -738.9 435.3 -795.5 329.5C-852 223.7 -930 111.8 -1008 0L0 0Z" fill="#18223c"></path><path d="M0 806.4C-109.7 800.6 -219.4 794.8 -308.6 745C-397.8 695.3 -466.4 601.5 -514.8 514.8C-563.1 428 -591.1 348.2 -636.4 263.6C-681.6 179 -744 89.5 -806.4 0L0 0Z" fill="#683a67"></path><path d="M0 604.8C-82.3 600.4 -164.6 596.1 -231.4 558.8C-298.3 521.4 -349.8 451.1 -386.1 386.1C-422.3 321 -443.4 261.2 -477.3 197.7C-511.2 134.2 -558 67.1 -604.8 0L0 0Z" fill="#c0526a"></path><path d="M0 403.2C-54.9 400.3 -109.7 397.4 -154.3 372.5C-198.9 347.6 -233.2 300.8 -257.4 257.4C-281.6 214 -295.6 174.1 -318.2 131.8C-340.8 89.5 -372 44.7 -403.2 0L0 0Z" fill="#f6884d"></path><path d="M0 201.6C-27.4 200.1 -54.9 198.7 -77.1 186.3C-99.4 173.8 -116.6 150.4 -128.7 128.7C-140.8 107 -147.8 87.1 -159.1 65.9C-170.4 44.7 -186 22.4 -201.6 0L0 0Z" fill="#fbae3c"></path></g><g transform="translate(0, 1440)"><path d="M0 -1008C110.2 -951 220.4 -894 355.1 -857.4C489.8 -820.8 649.1 -804.5 712.8 -712.8C776.5 -621 744.6 -453.6 777.9 -322.2C811.2 -190.8 909.6 -95.4 1008 0L0 0Z" fill="#18223c"></path><path d="M0 -806.4C88.2 -760.8 176.3 -715.2 284.1 -685.9C391.9 -656.6 519.3 -643.6 570.2 -570.2C621.2 -496.8 595.7 -362.9 622.3 -257.8C649 -152.7 727.7 -76.3 806.4 0L0 0Z" fill="#683a67"></path><path d="M0 -604.8C66.1 -570.6 132.2 -536.4 213.1 -514.4C293.9 -492.5 389.4 -482.7 427.7 -427.7C465.9 -372.6 446.8 -272.2 466.7 -193.3C486.7 -114.5 545.8 -57.2 604.8 0L0 0Z" fill="#c0526a"></path><path d="M0 -403.2C44.1 -380.4 88.2 -357.6 142.1 -342.9C195.9 -328.3 259.6 -321.8 285.1 -285.1C310.6 -248.4 297.8 -181.4 311.2 -128.9C324.5 -76.3 363.8 -38.2 403.2 0L0 0Z" fill="#f6884d"></path><path d="M0 -201.6C22 -190.2 44.1 -178.8 71 -171.5C98 -164.2 129.8 -160.9 142.6 -142.6C155.3 -124.2 148.9 -90.7 155.6 -64.4C162.2 -38.2 181.9 -19.1 201.6 0L0 0Z" fill="#fbae3c"></path></g></svg>